<?xml version="1.0" encoding="UTF-8"?>
<!DOCTYPE svg PUBLIC "-//W3C//DTD SVG 1.1//EN" "http://www.w3.org/Graphics/SVG/1.1/DTD/svg11.dtd">
<svg xmlns="http://www.w3.org/2000/svg" version="1.1" width="400px" height="400px" style="shape-rendering:geometricPrecision; text-rendering:geometricPrecision; image-rendering:optimizeQuality; fill-rule:evenodd; clip-rule:evenodd" xmlns:xlink="http://www.w3.org/1999/xlink">
<g><path style="opacity:1" fill="#fd0000" d="M -0.5,-0.5 C 132.833,-0.5 266.167,-0.5 399.5,-0.5C 399.5,132.833 399.5,266.167 399.5,399.5C 266.167,399.5 132.833,399.5 -0.5,399.5C -0.5,266.167 -0.5,132.833 -0.5,-0.5 Z"/></g>
<g><path style="opacity:1" fill="#020000" d="M 84.5,149.5 C 84.56,150.043 84.8933,150.376 85.5,150.5C 86.8174,144.012 86.8174,137.678 85.5,131.5C 85.5,123.833 85.5,116.167 85.5,108.5C 92.8333,108.5 100.167,108.5 107.5,108.5C 106.744,134.154 106.244,159.821 106,185.5C 99.5434,186.554 93.0434,186.388 86.5,185C 76.3625,171.229 65.8625,157.729 55,144.5C 54.5001,158.496 54.3334,172.496 54.5,186.5C 47.5,186.5 40.5,186.5 33.5,186.5C 34.8333,160.5 34.8333,134.5 33.5,108.5C 40.1836,108.22 46.8503,108.053 53.5,108C 63.3117,122.299 73.645,136.133 84.5,149.5 Z"/></g>
<g><path style="opacity:1" fill="#000000" d="M 260.5,113.5 C 259.179,121.676 259.179,130.009 260.5,138.5C 261.107,138.376 261.44,138.043 261.5,137.5C 271.449,129.934 281.616,129.601 292,136.5C 292.667,137.833 293.333,139.167 294,140.5C 294.5,155.83 294.667,171.163 294.5,186.5C 288.439,186.79 282.439,186.457 276.5,185.5C 275.668,174.515 275.168,163.515 275,152.5C 273.741,149.783 271.574,148.45 268.5,148.5C 264.774,148.775 261.941,150.442 260,153.5C 259.5,164.495 259.333,175.495 259.5,186.5C 253.242,186.81 247.076,186.476 241,185.5C 240.667,164.833 240.333,144.167 240,123.5C 239.774,119.113 239.274,114.779 238.5,110.5C 238.709,109.914 239.043,109.414 239.5,109C 246.485,108.229 253.485,107.729 260.5,107.5C 260.5,109.5 260.5,111.5 260.5,113.5 Z"/></g>
<g><path style="opacity:1" fill="#010000" d="M 306.5,114.5 C 312.821,115.276 319.154,115.942 325.5,116.5C 325.5,122.167 325.5,127.833 325.5,133.5C 330.167,133.5 334.833,133.5 339.5,133.5C 339.5,139.167 339.5,144.833 339.5,150.5C 334.833,150.5 330.167,150.5 325.5,150.5C 325.334,155.844 325.501,161.177 326,166.5C 326.5,167.667 327.333,168.5 328.5,169C 332.225,169.76 335.892,169.593 339.5,168.5C 340.661,172.795 340.828,177.129 340,181.5C 334.815,185.282 328.982,186.949 322.5,186.5C 315.608,187.713 310.441,185.379 307,179.5C 306.5,169.839 306.334,160.172 306.5,150.5C 304.533,150.739 302.699,150.406 301,149.5C 300.501,144.845 300.334,140.179 300.5,135.5C 302.467,135.739 304.301,135.406 306,134.5C 306.5,127.842 306.666,121.175 306.5,114.5 Z"/></g>
<g><path style="opacity:1" fill="#020000" d="M 130.5,115.5 C 156.674,113.82 166.507,125.486 160,150.5C 152.687,157.837 143.854,160.67 133.5,159C 116.521,155.559 110.354,145.393 115,128.5C 118.818,122.512 123.984,118.179 130.5,115.5 Z"/></g>
<g><path style="opacity:1" fill="#9b0001" d="M 260.5,113.5 C 260.174,121.684 260.508,129.684 261.5,137.5C 261.44,138.043 261.107,138.376 260.5,138.5C 259.179,130.009 259.179,121.676 260.5,113.5 Z"/></g>
<g><path style="opacity:1" fill="#020000" d="M 187.5,131.5 C 192.179,131.334 196.845,131.501 201.5,132C 204.236,133.362 206.569,135.196 208.5,137.5C 209.012,135.149 210.012,133.149 211.5,131.5C 217.441,132.561 223.441,133.228 229.5,133.5C 229.667,148.837 229.5,164.17 229,179.5C 227.593,193.57 219.76,200.737 205.5,201C 196.156,201.864 187.156,200.53 178.5,197C 177.919,196.107 177.585,195.107 177.5,194C 178.409,190.534 179.076,187.034 179.5,183.5C 183.441,184.757 187.441,185.924 191.5,187C 196.734,187.977 201.734,187.31 206.5,185C 209.29,182.79 210.123,179.956 209,176.5C 200.013,181.663 190.846,181.829 181.5,177C 169.885,164.796 168.718,151.629 178,137.5C 180.843,134.837 184.009,132.837 187.5,131.5 Z"/></g>
<g><path style="opacity:1" fill="#8d0001" d="M 85.5,131.5 C 86.8174,137.678 86.8174,144.012 85.5,150.5C 84.8933,150.376 84.56,150.043 84.5,149.5C 85.4896,143.69 85.8229,137.69 85.5,131.5 Z"/></g>
<g><path style="opacity:1" fill="#f50000" d="M 196.5,146.5 C 209.312,146.141 213.146,151.808 208,163.5C 201.101,168.255 195.768,166.922 192,159.5C 190.675,154.157 192.175,149.824 196.5,146.5 Z"/></g>
<g><path style="opacity:1" fill="#000000" d="M 113.5,169.5 C 129.835,170.784 146.169,170.784 162.5,169.5C 159.465,209.117 158.632,248.783 160,288.5C 159.5,289 159,289.5 158.5,290C 144.455,290.816 130.455,290.649 116.5,289.5C 115.667,258.839 115.167,228.172 115,197.5C 114.639,189.113 113.806,180.78 112.5,172.5C 112.685,171.416 113.018,170.416 113.5,169.5 Z"/></g>
<g><path style="opacity:1" fill="#010000" d="M 183.5,207.5 C 186.5,207.5 189.5,207.5 192.5,207.5C 191.634,217.473 191.301,227.473 191.5,237.5C 201.577,231.084 211.911,230.917 222.5,237C 232.306,247.059 235.139,258.892 231,272.5C 225.224,286.806 214.724,292.306 199.5,289C 197.064,288.07 194.731,286.903 192.5,285.5C 191.585,286.328 190.919,287.328 190.5,288.5C 183.866,289.497 177.2,289.83 170.5,289.5C 172.049,262.462 171.716,235.462 169.5,208.5C 174.363,208.819 179.03,208.486 183.5,207.5 Z"/></g>
<g><path style="opacity:1" fill="#030000" d="M 49.5,209.5 C 57.1667,209.5 64.8333,209.5 72.5,209.5C 71.6947,230.156 71.3613,250.823 71.5,271.5C 83.178,271.485 94.8447,271.152 106.5,270.5C 106.474,277.186 105.474,283.686 103.5,290C 85.5976,290.111 67.7642,289.611 50,288.5C 49.5,262.169 49.3334,235.835 49.5,209.5 Z"/></g>
<g><path style="opacity:1" fill="#030000" d="M 290.5,211.5 C 302.04,209.549 307.206,214.216 306,225.5C 305.535,226.931 304.701,228.097 303.5,229C 297.076,231.585 291.243,230.752 286,226.5C 283.074,220.085 284.574,215.085 290.5,211.5 Z"/></g>
<g><path style="opacity:1" fill="#010000" d="M 252.5,233.5 C 254.5,233.5 256.5,233.5 258.5,233.5C 258.5,235.5 258.5,237.5 258.5,239.5C 262.369,237.836 266.369,236.336 270.5,235C 272.81,234.503 275.143,234.337 277.5,234.5C 277.5,241.5 277.5,248.5 277.5,255.5C 273.154,255.334 268.821,255.501 264.5,256C 263.584,256.374 262.75,256.874 262,257.5C 260.522,268.046 260.022,278.546 260.5,289C 253.842,289.5 247.175,289.666 240.5,289.5C 240.667,275.163 240.5,260.829 240,246.5C 239.608,243.812 239.108,241.145 238.5,238.5C 238.818,237.353 239.484,236.519 240.5,236C 244.767,235.811 248.767,234.977 252.5,233.5 Z"/></g>
<g><path style="opacity:1" fill="#020000" d="M 331.5,233.5 C 337.176,233.334 342.843,233.501 348.5,234C 351.562,235.061 354.062,236.894 356,239.5C 356.116,235.931 357.949,234.264 361.5,234.5C 366.159,234.931 370.659,235.931 375,237.5C 374.219,245.268 373.719,253.101 373.5,261C 374.049,270.494 374.382,279.994 374.5,289.5C 368.167,289.5 361.833,289.5 355.5,289.5C 355.967,283.086 354.301,282.253 350.5,287C 334.532,293.9 323.032,289.4 316,273.5C 311.389,259.167 314.556,247.001 325.5,237C 327.727,236.059 329.727,234.892 331.5,233.5 Z"/></g>
<g><path style="opacity:1" fill="#000000" d="M 284.5,235.5 C 291.833,235.5 299.167,235.5 306.5,235.5C 305.752,253.15 305.252,270.816 305,288.5C 298.59,289.478 292.09,289.811 285.5,289.5C 285.734,271.482 285.4,253.482 284.5,235.5 Z"/></g>
<g><path style="opacity:1" fill="#f50000" d="M 198.5,249.5 C 205.496,248.906 209.996,251.906 212,258.5C 212.608,268.893 207.775,273.393 197.5,272C 195,270.833 193.167,269 192,266.5C 189.657,258.825 191.824,253.158 198.5,249.5 Z"/></g>
<g><path style="opacity:1" fill="#f60000" d="M 339.5,250.5 C 351.104,248.938 356.271,253.938 355,265.5C 351.96,271.603 347.126,273.769 340.5,272C 334.092,268.677 331.925,263.511 334,256.5C 335.36,253.977 337.193,251.977 339.5,250.5 Z"/></g>
</svg>
